<svg width="27" height="27" viewBox="0 0 27 27" fill="none" xmlns="http://www.w3.org/2000/svg">
<path opacity="0.4" d="M18.2138 2.25L8.78625 2.25C4.69125 2.25 2.25 4.69125 2.25 8.78625L2.25 18.2025C2.25 22.3088 4.69125 24.75 8.78625 24.75L18.2025 24.75C22.2975 24.75 24.7388 22.3088 24.7388 18.2138L24.7388 8.78625C24.75 4.69125 22.3088 2.25 18.2138 2.25Z" fill="#4156D9"/>
<path d="M14.9174 18.3147C14.7037 18.3147 14.4899 18.2359 14.3212 18.0672L10.3499 14.0959C10.0237 13.7697 10.0237 13.2297 10.3499 12.9034L14.3212 8.93219C14.6474 8.60594 15.1874 8.60594 15.5137 8.93219C15.8399 9.25844 15.8399 9.79844 15.5137 10.1247L12.1387 13.4997L15.5137 16.8747C15.8399 17.2009 15.8399 17.7409 15.5137 18.0672C15.3562 18.2359 15.1424 18.3147 14.9174 18.3147Z" fill="#4156D9"/>
</svg>
