<svg width="34" height="34" viewBox="0 0 34 34" fill="none" xmlns="http://www.w3.org/2000/svg">
<g clip-path="url(#clip0_3_1613)">
<path opacity="0.4" d="M17.0002 31.1663C24.8242 31.1663 31.1668 24.8237 31.1668 16.9997C31.1668 9.17564 24.8242 2.83301 17.0002 2.83301C9.17613 2.83301 2.8335 9.17564 2.8335 16.9997C2.8335 24.8237 9.17613 31.1663 17.0002 31.1663Z" fill="#4156D9"/>
<path d="M22.0011 19.8479C21.7319 19.8479 21.4627 19.7487 21.2502 19.5362L17.0002 15.2862L12.7502 19.5362C12.3394 19.947 11.6594 19.947 11.2486 19.5362C10.8377 19.1254 10.8377 18.4454 11.2486 18.0345L16.2494 13.0337C16.6602 12.6229 17.3402 12.6229 17.7511 13.0337L22.7519 18.0345C23.1627 18.4454 23.1627 19.1254 22.7519 19.5362C22.5394 19.7487 22.2702 19.8479 22.0011 19.8479Z" fill="#4156D9"/>
</g>
<defs>
<clipPath id="clip0_3_1613">
<rect width="34" height="34" fill="white"/>
</clipPath>
</defs>
</svg>
