<svg width="26" height="26" viewBox="0 0 26 26" fill="none" xmlns="http://www.w3.org/2000/svg">
<path opacity="0.4" d="M8.46099 23.833L17.5393 23.833C21.4827 23.833 23.8335 21.4822 23.8335 17.5388L23.8335 8.47134C23.8335 4.51717 21.4827 2.16634 17.5393 2.16634L8.47183 2.16634C4.5285 2.16634 2.17766 4.51717 2.17766 8.4605L2.17766 17.5388C2.16683 21.4822 4.51766 23.833 8.46099 23.833Z" fill="#9C9C9C"/>
<path d="M11.6351 8.36316C11.8409 8.36316 12.0468 8.439 12.2093 8.6015L16.0334 12.4257C16.3476 12.7398 16.3476 13.2598 16.0334 13.574L12.2093 17.3982C11.8951 17.7123 11.3751 17.7123 11.0609 17.3982C10.7468 17.084 10.7468 16.564 11.0609 16.2498L14.3109 12.9998L11.0609 9.74983C10.7468 9.43566 10.7468 8.91566 11.0609 8.6015C11.2126 8.439 11.4184 8.36316 11.6351 8.36316Z" fill="#9C9C9C"/>
</svg>
