<svg width="26" height="26" viewBox="0 0 26 26" fill="none" xmlns="http://www.w3.org/2000/svg">
<path opacity="0.4" d="M17.539 2.16699L8.46067 2.16699C4.51734 2.16699 2.1665 4.51783 2.1665 8.46116L2.1665 17.5287C2.1665 21.4828 4.51734 23.8337 8.46067 23.8337L17.5282 23.8337C21.4715 23.8337 23.8223 21.4828 23.8223 17.5395L23.8223 8.46116C23.8332 4.51783 21.4823 2.16699 17.539 2.16699Z" fill="#9C9C9C"/>
<path d="M14.3649 17.6368C14.1591 17.6368 13.9532 17.561 13.7907 17.3985L9.96658 13.5743C9.65242 13.2602 9.65242 12.7402 9.96658 12.426L13.7907 8.60184C14.1049 8.28767 14.6249 8.28767 14.9391 8.60184C15.2532 8.916 15.2532 9.436 14.9391 9.75017L11.6891 13.0002L14.9391 16.2502C15.2532 16.5643 15.2532 17.0843 14.9391 17.3985C14.7874 17.561 14.5816 17.6368 14.3649 17.6368Z" fill="#9C9C9C"/>
</svg>
