<svg width="20" height="20" viewBox="0 0 20 20" fill="none" xmlns="http://www.w3.org/2000/svg">
<path opacity="0.4" d="M13.4915 1.66699H6.50817C3.47484 1.66699 1.6665 3.47533 1.6665 6.50866V13.4837C1.6665 16.5253 3.47484 18.3337 6.50817 18.3337H13.4832C16.5165 18.3337 18.3248 16.5253 18.3248 13.492V6.50866C18.3332 3.47533 16.5248 1.66699 13.4915 1.66699Z" fill="#4156D9"/>
<path d="M11.0499 13.5668C10.8916 13.5668 10.7333 13.5085 10.6083 13.3835L7.6666 10.4418C7.42493 10.2001 7.42493 9.80013 7.6666 9.55846L10.6083 6.6168C10.8499 6.37513 11.2499 6.37513 11.4916 6.6168C11.7333 6.85846 11.7333 7.25846 11.4916 7.50013L8.9916 10.0001L11.4916 12.5001C11.7333 12.7418 11.7333 13.1418 11.4916 13.3835C11.3749 13.5085 11.2166 13.5668 11.0499 13.5668Z" fill="#4156D9"/>
</svg>
