<svg width="23" height="23" viewBox="0 0 23 23" fill="none" xmlns="http://www.w3.org/2000/svg">
<path d="M16.052 3.41199V1.91699C16.052 1.52408 15.7261 1.19824 15.3332 1.19824C14.9403 1.19824 14.6145 1.52408 14.6145 1.91699V3.35449H8.38531V1.91699C8.38531 1.52408 8.05948 1.19824 7.66656 1.19824C7.27364 1.19824 6.94781 1.52408 6.94781 1.91699V3.41199C4.36031 3.65157 3.10489 5.19449 2.91323 7.48491C2.89406 7.76282 3.12406 7.99282 3.39239 7.99282H19.6074C19.8853 7.99282 20.1153 7.75324 20.0866 7.48491C19.8949 5.19449 18.6395 3.65157 16.052 3.41199Z" fill="#5E5E5E"/>
<path opacity="0.4" d="M19.1667 9.42969C19.6938 9.42969 20.125 9.86094 20.125 10.388V16.2914C20.125 19.1664 18.6875 21.083 15.3333 21.083H7.66667C4.3125 21.083 2.875 19.1664 2.875 16.2914V10.388C2.875 9.86094 3.30625 9.42969 3.83333 9.42969H19.1667Z" fill="#5E5E5E"/>
<path d="M8.14583 14.3746C7.89667 14.3746 7.6475 14.2692 7.46542 14.0967C7.29292 13.9146 7.1875 13.6654 7.1875 13.4163C7.1875 13.1671 7.29292 12.9179 7.46542 12.7359C7.73375 12.4675 8.15542 12.3812 8.51 12.5346C8.63458 12.5825 8.74 12.6496 8.82625 12.7359C8.99875 12.9179 9.10417 13.1671 9.10417 13.4163C9.10417 13.6654 8.99875 13.9146 8.82625 14.0967C8.64417 14.2692 8.395 14.3746 8.14583 14.3746Z" fill="#5E5E5E"/>
<path d="M11.4998 14.3746C11.2507 14.3746 11.0015 14.2692 10.8194 14.0967C10.6469 13.9146 10.5415 13.6654 10.5415 13.4163C10.5415 13.1671 10.6469 12.9179 10.8194 12.7359C10.9057 12.6496 11.0111 12.5825 11.1357 12.5346C11.4903 12.3812 11.9119 12.4675 12.1803 12.7359C12.3528 12.9179 12.4582 13.1671 12.4582 13.4163C12.4582 13.6654 12.3528 13.9146 12.1803 14.0967C12.1323 14.135 12.0844 14.1733 12.0365 14.2117C11.979 14.25 11.9215 14.2788 11.864 14.2979C11.8065 14.3267 11.749 14.3459 11.6915 14.3554C11.6244 14.365 11.5669 14.3746 11.4998 14.3746Z" fill="#5E5E5E"/>
<path d="M14.8543 14.3747C14.6052 14.3747 14.356 14.2693 14.1739 14.0968C14.0014 13.9147 13.896 13.6655 13.896 13.4164C13.896 13.1672 14.0014 12.918 14.1739 12.7359C14.2697 12.6497 14.3656 12.5826 14.4902 12.5347C14.6627 12.458 14.8543 12.4388 15.046 12.4772C15.1035 12.4868 15.161 12.5059 15.2185 12.5347C15.276 12.5538 15.3335 12.5826 15.391 12.6209C15.4389 12.6593 15.4868 12.6976 15.5347 12.7359C15.7072 12.918 15.8127 13.1672 15.8127 13.4164C15.8127 13.6655 15.7072 13.9147 15.5347 14.0968C15.4868 14.1351 15.4389 14.1734 15.391 14.2118C15.3335 14.2501 15.276 14.2789 15.2185 14.298C15.161 14.3268 15.1035 14.3459 15.046 14.3555C14.9789 14.3651 14.9118 14.3747 14.8543 14.3747Z" fill="#5E5E5E"/>
<path d="M8.14583 17.7292C8.02125 17.7292 7.89667 17.7004 7.78167 17.6525C7.65708 17.6046 7.56125 17.5375 7.46542 17.4513C7.29292 17.2692 7.1875 17.02 7.1875 16.7708C7.1875 16.5217 7.29292 16.2725 7.46542 16.0904C7.56125 16.0042 7.65708 15.9371 7.78167 15.8892C7.95417 15.8125 8.14583 15.7933 8.3375 15.8317C8.395 15.8413 8.4525 15.8604 8.51 15.8892C8.5675 15.9083 8.625 15.9371 8.6825 15.9754C8.73042 16.0138 8.77833 16.0521 8.82625 16.0904C8.99875 16.2725 9.10417 16.5217 9.10417 16.7708C9.10417 17.02 8.99875 17.2692 8.82625 17.4513C8.77833 17.4896 8.73042 17.5375 8.6825 17.5662C8.625 17.6046 8.5675 17.6334 8.51 17.6525C8.4525 17.6813 8.395 17.7004 8.3375 17.71C8.27042 17.7196 8.21292 17.7292 8.14583 17.7292Z" fill="#5E5E5E"/>
<path d="M11.4998 17.7289C11.2507 17.7289 11.0015 17.6235 10.8194 17.451C10.6469 17.2689 10.5415 17.0197 10.5415 16.7706C10.5415 16.5214 10.6469 16.2722 10.8194 16.0902C11.174 15.7356 11.8257 15.7356 12.1803 16.0902C12.3528 16.2722 12.4582 16.5214 12.4582 16.7706C12.4582 17.0197 12.3528 17.2689 12.1803 17.451C11.9982 17.6235 11.749 17.7289 11.4998 17.7289Z" fill="#5E5E5E"/>
<path d="M14.8543 17.7289C14.6052 17.7289 14.356 17.6235 14.1739 17.451C14.0014 17.2689 13.896 17.0197 13.896 16.7706C13.896 16.5214 14.0014 16.2722 14.1739 16.0902C14.5285 15.7356 15.1802 15.7356 15.5347 16.0902C15.7072 16.2722 15.8127 16.5214 15.8127 16.7706C15.8127 17.0197 15.7072 17.2689 15.5347 17.451C15.3527 17.6235 15.1035 17.7289 14.8543 17.7289Z" fill="#5E5E5E"/>
</svg>
