<svg width="23" height="23" viewBox="0 0 23 23" fill="none" xmlns="http://www.w3.org/2000/svg">
<path d="M16.8857 10.3016C16.4736 10.3016 16.1478 9.96621 16.1478 9.56371C16.1478 9.20913 15.7932 8.47121 15.199 7.82913C14.6144 7.20621 13.9723 6.84204 13.4357 6.84204C13.0236 6.84204 12.6978 6.50663 12.6978 6.10413C12.6978 5.70163 13.0332 5.36621 13.4357 5.36621C14.394 5.36621 15.4003 5.88371 16.2819 6.81329C17.1061 7.68538 17.6332 8.76829 17.6332 9.55413C17.6332 9.96621 17.2978 10.3016 16.8857 10.3016Z" fill="#4156D9"/>
<path d="M20.3454 10.3024C19.9334 10.3024 19.6075 9.96699 19.6075 9.56449C19.6075 6.16241 16.8379 3.40241 13.4454 3.40241C13.0334 3.40241 12.7075 3.06699 12.7075 2.66449C12.7075 2.26199 13.0334 1.91699 13.4359 1.91699C17.6525 1.91699 21.0834 5.34782 21.0834 9.56449C21.0834 9.96699 20.7479 10.3024 20.3454 10.3024Z" fill="#4156D9"/>
<path opacity="0.4" d="M11.2986 13.6182L8.16484 16.752C7.81984 16.4453 7.48442 16.1291 7.15859 15.8032C6.1715 14.8066 5.28025 13.762 4.48484 12.6695C3.699 11.577 3.0665 10.4845 2.6065 9.40158C2.1465 8.30908 1.9165 7.26449 1.9165 6.26783C1.9165 5.61616 2.0315 4.99324 2.2615 4.41824C2.4915 3.83366 2.85567 3.29699 3.36359 2.81783C3.97692 2.21408 4.64775 1.91699 5.35692 1.91699C5.62525 1.91699 5.89359 1.97449 6.13317 2.08949C6.38234 2.20449 6.60275 2.37699 6.77525 2.62616L8.99859 5.75991C9.17109 5.99949 9.29567 6.21991 9.38192 6.43074C9.46817 6.63199 9.51609 6.83324 9.51609 7.01533C9.51609 7.24533 9.449 7.47533 9.31484 7.69574C9.19025 7.91616 9.00817 8.14616 8.77817 8.37616L8.04984 9.13324C7.94442 9.23866 7.8965 9.36324 7.8965 9.51658C7.8965 9.59324 7.90609 9.66033 7.92525 9.73699C7.954 9.81366 7.98275 9.87116 8.00192 9.92866C8.17442 10.2449 8.4715 10.657 8.89317 11.1553C9.32442 11.6537 9.78442 12.1616 10.2828 12.6695C10.6278 13.0049 10.9632 13.3307 11.2986 13.6182Z" fill="#4156D9"/>
<path d="M21.0548 17.5663C21.0548 17.8347 21.0069 18.1126 20.911 18.3809C20.8823 18.4576 20.8535 18.5342 20.8152 18.6109C20.6523 18.9559 20.4414 19.2817 20.1635 19.5884C19.6939 20.1059 19.1764 20.4797 18.5919 20.7192C18.5823 20.7192 18.5727 20.7288 18.5631 20.7288C17.9977 20.9588 17.3844 21.0834 16.7231 21.0834C15.7456 21.0834 14.701 20.8534 13.5989 20.3838C12.4969 19.9142 11.3948 19.2817 10.3023 18.4863C9.92853 18.2084 9.55478 17.9305 9.2002 17.6334L12.3339 14.4997C12.6023 14.7009 12.8419 14.8542 13.0431 14.9597C13.091 14.9788 13.1485 15.0076 13.2156 15.0363C13.2923 15.0651 13.3689 15.0747 13.4552 15.0747C13.6181 15.0747 13.7427 15.0172 13.8481 14.9117L14.5764 14.193C14.816 13.9534 15.046 13.7713 15.2664 13.6563C15.4869 13.5222 15.7073 13.4551 15.9469 13.4551C16.1289 13.4551 16.3206 13.4934 16.5314 13.5797C16.7423 13.6659 16.9627 13.7905 17.2023 13.9534L20.3744 16.2055C20.6235 16.378 20.796 16.5792 20.9014 16.8188C20.9973 17.0584 21.0548 17.298 21.0548 17.5663Z" fill="#4156D9"/>
</svg>
