<svg width="119" height="117" viewBox="0 0 119 117" fill="none" xmlns="http://www.w3.org/2000/svg">
<g filter="url(#filter0_d_3_1390)">
<rect x="30" y="26" width="59" height="57" rx="8" fill="#EAEAEA"/>
</g>
<path d="M58.6475 54.709C58.6475 56.4785 58.2812 57.832 57.5488 58.7695C56.8164 59.707 55.7441 60.1758 54.332 60.1758C52.9375 60.1758 51.8711 59.7158 51.1328 58.7959C50.3945 57.876 50.0166 56.5576 49.999 54.8408V52.4854C49.999 50.6982 50.3682 49.3418 51.1064 48.416C51.8506 47.4902 52.9199 47.0273 54.3145 47.0273C55.709 47.0273 56.7754 47.4873 57.5137 48.4072C58.252 49.3213 58.6299 50.6367 58.6475 52.3535V54.709ZM56.1074 52.125C56.1074 51.0645 55.9609 50.2939 55.668 49.8135C55.3809 49.3271 54.9297 49.084 54.3145 49.084C53.7168 49.084 53.2744 49.3154 52.9873 49.7783C52.7061 50.2354 52.5566 50.9531 52.5391 51.9316V55.043C52.5391 56.0859 52.6797 56.8623 52.9609 57.3721C53.248 57.876 53.7051 58.1279 54.332 58.1279C54.9531 58.1279 55.4014 57.8848 55.6768 57.3984C55.9521 56.9121 56.0957 56.168 56.1074 55.166V52.125ZM66.54 60H64V50.209L60.9678 51.1494V49.084L66.2676 47.1855H66.54V60Z" fill="#424242"/>
<defs>
<filter id="filter0_d_3_1390" x="0" y="0" width="119" height="117" filterUnits="userSpaceOnUse" color-interpolation-filters="sRGB">
<feFlood flood-opacity="0" result="BackgroundImageFix"/>
<feColorMatrix in="SourceAlpha" type="matrix" values="0 0 0 0 0 0 0 0 0 0 0 0 0 0 0 0 0 0 127 0" result="hardAlpha"/>
<feOffset dy="4"/>
<feGaussianBlur stdDeviation="15"/>
<feComposite in2="hardAlpha" operator="out"/>
<feColorMatrix type="matrix" values="0 0 0 0 0.8875 0 0 0 0 0.8875 0 0 0 0 0.8875 0 0 0 0.1 0"/>
<feBlend mode="normal" in2="BackgroundImageFix" result="effect1_dropShadow_3_1390"/>
<feBlend mode="normal" in="SourceGraphic" in2="effect1_dropShadow_3_1390" result="shape"/>
</filter>
</defs>
</svg>
