<svg width="119" height="117" viewBox="0 0 119 117" fill="none" xmlns="http://www.w3.org/2000/svg">
<g filter="url(#filter0_d_1_402)">
<rect x="30" y="26" width="59" height="57" rx="8" fill="#EAEAEA"/>
</g>
<path d="M51.6475 54.709C51.6475 56.4785 51.2812 57.832 50.5488 58.7695C49.8164 59.707 48.7441 60.1758 47.332 60.1758C45.9375 60.1758 44.8711 59.7158 44.1328 58.7959C43.3945 57.876 43.0166 56.5576 42.999 54.8408V52.4854C42.999 50.6982 43.3682 49.3418 44.1064 48.416C44.8506 47.4902 45.9199 47.0273 47.3145 47.0273C48.709 47.0273 49.7754 47.4873 50.5137 48.4072C51.252 49.3213 51.6299 50.6367 51.6475 52.3535V54.709ZM49.1074 52.125C49.1074 51.0645 48.9609 50.2939 48.668 49.8135C48.3809 49.3271 47.9297 49.084 47.3145 49.084C46.7168 49.084 46.2744 49.3154 45.9873 49.7783C45.7061 50.2354 45.5566 50.9531 45.5391 51.9316V55.043C45.5391 56.0859 45.6797 56.8623 45.9609 57.3721C46.248 57.876 46.7051 58.1279 47.332 58.1279C47.9531 58.1279 48.4014 57.8848 48.6768 57.3984C48.9521 56.9121 49.0957 56.168 49.1074 55.166V52.125ZM59.54 60H57V50.209L53.9678 51.1494V49.084L59.2676 47.1855H59.54V60Z" fill="#424242"/>
<defs>
<filter id="filter0_d_1_402" x="0" y="0" width="119" height="117" filterUnits="userSpaceOnUse" color-interpolation-filters="sRGB">
<feFlood flood-opacity="0" result="BackgroundImageFix"/>
<feColorMatrix in="SourceAlpha" type="matrix" values="0 0 0 0 0 0 0 0 0 0 0 0 0 0 0 0 0 0 127 0" result="hardAlpha"/>
<feOffset dy="4"/>
<feGaussianBlur stdDeviation="15"/>
<feComposite in2="hardAlpha" operator="out"/>
<feColorMatrix type="matrix" values="0 0 0 0 0.8875 0 0 0 0 0.8875 0 0 0 0 0.8875 0 0 0 0.1 0"/>
<feBlend mode="normal" in2="BackgroundImageFix" result="effect1_dropShadow_1_402"/>
<feBlend mode="normal" in="SourceGraphic" in2="effect1_dropShadow_1_402" result="shape"/>
</filter>
</defs>
</svg>
