<svg width="184" height="148" viewBox="0 0 184 148" fill="none" xmlns="http://www.w3.org/2000/svg">
<rect width="184" height="148" rx="14" fill="#4156D9"/>
<path d="M50.6305 69.96H49.3505V82.504H50.6305V85H44.3585V77.48H39.3345V85H33.0625V82.504H34.3105V69.96H33.0625V67.464H39.3345V74.984H44.3585V67.464H50.6305V69.96ZM53.125 67.464H69.413V85H64.421V77.48H59.397V85H54.373V69.96H53.125V67.464ZM64.421 74.984V69.96H59.397V74.984H64.421ZM80.7055 67.464H86.9775V85H71.9375V77.48H76.9615V82.504H81.9535V69.96H80.7055V67.464ZM99.516 69.96H97.02V82.504H99.516V85H89.5V82.504H91.996V69.96H89.5V67.464H99.516V69.96ZM112.047 69.96H109.551V82.504H112.047V85H102.031V82.504H104.527V69.96H102.031V67.464H112.047V69.96ZM123.331 67.464H129.603V85H114.562V77.48H119.587V82.504H124.579V69.96H123.331V67.464ZM132.125 67.464H148.413V85H143.421V77.48H138.397V85H133.373V69.96H132.125V67.464ZM143.421 74.984V69.96H138.397V74.984H143.421Z" fill="white"/>
<path d="M144.5 33L145.801 43.1989L156 44.5L145.801 45.8011L144.5 56L143.199 45.8011L133 44.5L143.199 43.1989L144.5 33Z" fill="white"/>
<path d="M154 54L154.792 60.208L161 61L154.792 61.792L154 68L153.208 61.792L147 61L153.208 60.208L154 54Z" fill="white"/>
<path d="M137.5 54L138.009 57.9909L142 58.5L138.009 59.0091L137.5 63L136.991 59.0091L133 58.5L136.991 57.9909L137.5 54Z" fill="white"/>
</svg>
