<svg width="18" height="19" viewBox="0 0 18 19" fill="none" xmlns="http://www.w3.org/2000/svg">
<rect width="18" height="18" transform="translate(0 0.5)" fill="white" fill-opacity="0.01"/>
<g clip-path="url(#clip0_1_2386)">
<path d="M12.7419 11.844C13.7102 10.5227 14.1439 8.88447 13.9562 7.25713C13.7685 5.62979 12.9733 4.13332 11.7297 3.06711C10.486 2.0009 8.88567 1.44358 7.24876 1.50666C5.61184 1.56973 4.05911 2.24854 2.90119 3.40729C1.74327 4.56603 1.06557 6.11926 1.00367 7.75621C0.941768 9.39317 1.50023 10.9931 2.56733 12.236C3.63443 13.4789 5.13147 14.273 6.75894 14.4596C8.38641 14.6461 10.0243 14.2112 11.3449 13.242H11.3439C11.3739 13.282 11.4059 13.32 11.4419 13.357L15.2919 17.207C15.4794 17.3946 15.7338 17.5001 15.9991 17.5002C16.2643 17.5003 16.5188 17.395 16.7064 17.2075C16.8941 17.02 16.9995 16.7656 16.9996 16.5003C16.9997 16.2351 16.8944 15.9806 16.7069 15.793L12.8569 11.943C12.8212 11.9068 12.7827 11.8734 12.7419 11.843V11.844ZM12.9999 7.99998C12.9999 8.72225 12.8577 9.43745 12.5813 10.1047C12.3049 10.772 11.8997 11.3783 11.389 11.8891C10.8783 12.3998 10.272 12.8049 9.60468 13.0813C8.93739 13.3577 8.22219 13.5 7.49992 13.5C6.77765 13.5 6.06245 13.3577 5.39516 13.0813C4.72787 12.8049 4.12156 12.3998 3.61083 11.8891C3.10011 11.3783 2.69498 10.772 2.41858 10.1047C2.14218 9.43745 1.99992 8.72225 1.99992 7.99998C1.99992 6.54129 2.57938 5.14234 3.61083 4.11089C4.64228 3.07944 6.04123 2.49998 7.49992 2.49998C8.95861 2.49998 10.3576 3.07944 11.389 4.11089C12.4205 5.14234 12.9999 6.54129 12.9999 7.99998Z" fill="#6C757D"/>
</g>
<defs>
<clipPath id="clip0_1_2386">
<rect width="16" height="16" fill="white" transform="translate(1 1.5)"/>
</clipPath>
</defs>
</svg>
