<svg width="23" height="23" viewBox="0 0 23 23" fill="none" xmlns="http://www.w3.org/2000/svg">
<path opacity="0.4" d="M19.761 8.09759C18.7548 3.67009 14.8927 1.67676 11.5002 1.67676C11.5002 1.67676 11.5002 1.67676 11.4906 1.67676C8.10771 1.67676 4.23605 3.66051 3.2298 8.08801C2.10855 13.033 5.13688 17.2209 7.87771 19.8563C8.89355 20.8338 10.1969 21.3226 11.5002 21.3226C12.8035 21.3226 14.1069 20.8338 15.1131 19.8563C17.854 17.2209 20.8823 13.0426 19.761 8.09759Z" fill="#4156D9"/>
<path d="M11.5002 12.8988C13.1674 12.8988 14.5189 11.5473 14.5189 9.88008C14.5189 8.21287 13.1674 6.86133 11.5002 6.86133C9.83299 6.86133 8.48145 8.21287 8.48145 9.88008C8.48145 11.5473 9.83299 12.8988 11.5002 12.8988Z" fill="#4156D9"/>
</svg>
