<svg width="23" height="23" viewBox="0 0 23 23" fill="none" xmlns="http://www.w3.org/2000/svg">
<path opacity="0.4" d="M16.2915 19.6462H6.70817C3.83317 19.6462 1.9165 18.2087 1.9165 14.8545V8.14616C1.9165 4.79199 3.83317 3.35449 6.70817 3.35449H16.2915C19.1665 3.35449 21.0832 4.79199 21.0832 8.14616V14.8545C21.0832 18.2087 19.1665 19.6462 16.2915 19.6462Z" fill="#4156D9"/>
<path d="M11.4998 12.3335C10.6948 12.3335 9.88025 12.0843 9.25733 11.5764L6.25774 9.18056C5.95108 8.9314 5.89358 8.48098 6.14275 8.17431C6.39191 7.86764 6.84233 7.81015 7.149 8.05931L10.1486 10.4551C10.8769 11.0397 12.1132 11.0397 12.8415 10.4551L15.8411 8.05931C16.1477 7.81015 16.6077 7.85806 16.8473 8.17431C17.0965 8.48098 17.0486 8.94098 16.7323 9.18056L13.7327 11.5764C13.1194 12.0843 12.3048 12.3335 11.4998 12.3335Z" fill="#4156D9"/>
</svg>
