<svg width="25" height="25" viewBox="0 0 25 25" fill="none" xmlns="http://www.w3.org/2000/svg">
<path opacity="0.45" d="M19.1146 20.5C18.5417 21.9688 17.1459 22.9167 15.573 22.9167H9.42712C7.84379 22.9167 6.45837 21.9688 5.88546 20.5C5.31254 19.0208 5.70837 17.3854 6.87504 16.3229L11.0938 12.5H13.9167L18.125 16.3229C19.2917 17.3854 19.6771 19.0208 19.1146 20.5Z" fill="white"/>
<path d="M14.396 18.8962H10.6043C10.2085 18.8962 9.896 18.5732 9.896 18.1878C9.896 17.792 10.2189 17.4795 10.6043 17.4795H14.396C14.7918 17.4795 15.1043 17.8024 15.1043 18.1878C15.1043 18.5732 14.7814 18.8962 14.396 18.8962Z" fill="white"/>
<path d="M19.1146 4.49967C18.5417 3.03092 17.1459 2.08301 15.5729 2.08301H9.42711C7.85419 2.08301 6.45836 3.03092 5.88544 4.49967C5.32294 5.97884 5.70836 7.61426 6.88544 8.67676L11.0938 12.4997H13.9167L18.125 8.67676C19.2917 7.61426 19.6771 5.97884 19.1146 4.49967ZM14.3959 7.53092H10.6042C10.2084 7.53092 9.89586 7.20801 9.89586 6.82259C9.89586 6.43717 10.2188 6.11426 10.6042 6.11426H14.3959C14.7917 6.11426 15.1042 6.43717 15.1042 6.82259C15.1042 7.20801 14.7813 7.53092 14.3959 7.53092Z" fill="white"/>
</svg>
